<?xml version="1.0" encoding="UTF-8" standalone="no"?>
<!-- Generator: Adobe Illustrator 18.1.1, SVG Export Plug-In . SVG Version: 6.00 Build 0)  -->

<svg
   version="1.1"
   id="Capa_1"
   x="0px"
   y="0px"
   viewBox="0 0 399.264 399.264"
   style="enable-background:new 0 0 399.264 399.264;"
   xml:space="preserve"
   sodipodi:docname="speaker-white.svg"
   inkscape:version="1.1.1 (3bf5ae0d25, 2021-09-20, custom)"
   xmlns:inkscape="http://www.inkscape.org/namespaces/inkscape"
   xmlns:sodipodi="http://sodipodi.sourceforge.net/DTD/sodipodi-0.dtd"
   xmlns="http://www.w3.org/2000/svg"
   xmlns:svg="http://www.w3.org/2000/svg"><defs
   id="defs50" /><sodipodi:namedview
   id="namedview48"
   pagecolor="#ffffff"
   bordercolor="#666666"
   borderopacity="1.0"
   inkscape:pageshadow="2"
   inkscape:pageopacity="0.0"
   inkscape:pagecheckerboard="0"
   showgrid="false"
   inkscape:zoom="2.1865232"
   inkscape:cx="198.71731"
   inkscape:cy="199.40333"
   inkscape:window-width="1880"
   inkscape:window-height="2130"
   inkscape:window-x="71"
   inkscape:window-y="0"
   inkscape:window-maximized="0"
   inkscape:current-layer="Capa_1" />

<g
   id="g17">
</g>
<g
   id="g19">
</g>
<g
   id="g21">
</g>
<g
   id="g23">
</g>
<g
   id="g25">
</g>
<g
   id="g27">
</g>
<g
   id="g29">
</g>
<g
   id="g31">
</g>
<g
   id="g33">
</g>
<g
   id="g35">
</g>
<g
   id="g37">
</g>
<g
   id="g39">
</g>
<g
   id="g41">
</g>
<g
   id="g43">
</g>
<g
   id="g45">
</g>
<path
   style="fill:#ffffff;stroke:#999999;stroke-width:0.230979;stroke-linejoin:round;paint-order:markers stroke fill"
   d="m 196.35171,155.01083 c -7.70238,-1.79632 -13.56335,-5.18041 -19.19497,-11.08306 -5.09881,-5.3442 -8.65272,-11.86138 -10.49353,-19.24306 -0.809,-3.24412 -0.90452,-4.29306 -0.90452,-9.93367 0,-5.67138 0.093,-6.68018 0.92331,-10.01629 1.10683,-4.44707 4.0016,-10.962536 6.34559,-14.282463 5.97423,-8.461673 14.48029,-14.190659 23.97481,-16.147475 3.61745,-0.74556 10.57469,-0.74556 14.19213,0 14.77183,3.044468 26.40759,14.746715 30.33919,30.512538 0.80902,3.24414 0.90453,4.29308 0.90453,9.93369 0,5.64061 -0.0955,6.68955 -0.90453,9.93367 -1.08965,4.36958 -3.36315,9.66759 -5.73487,13.36417 -2.0971,3.26858 -6.94137,8.43463 -9.96723,10.62933 -3.23146,2.34382 -8.17291,4.74688 -11.99724,5.83435 -4.69271,1.33441 -12.89504,1.56817 -17.48267,0.49827 z"
   id="path1022" /><path
   style="fill:#ffffff;stroke:#999999;stroke-width:0.230979;stroke-linejoin:round;paint-order:markers stroke fill"
   d="m 131.45106,261.20777 c -0.96931,-0.38401 -1.7215,-1.33457 -1.7215,-2.1755 0,-0.98344 25.29167,-73.25052 27.03493,-77.24819 1.98056,-4.54182 5.18826,-8.3265 8.66918,-10.22854 3.0828,-1.68448 3.5199,-1.7037 38.89236,-1.70949 31.87294,-0.005 33.5515,0.0277 35.54837,0.69734 1.15272,0.38656 2.87191,1.23942 3.82044,1.89523 2.11966,1.46556 5.63427,5.51965 7.16056,8.25968 1.2886,2.31333 27.61197,76.96319 27.61197,78.30417 0,0.47827 -0.32584,1.18762 -0.7241,1.57631 -0.66707,0.65102 -1.44687,0.7159 -9.89864,0.82352 -5.68913,0.0725 -9.63776,-0.0301 -10.39388,-0.26995 -2.46333,-0.78138 -2.72674,-1.37483 -8.25559,-18.59995 -2.84549,-8.86514 -5.57816,-17.32872 -6.0726,-18.80797 -0.8784,-2.62801 -1.542,-3.31842 -1.98743,-2.06772 -0.1218,0.34202 -0.20298,9.04602 -0.18039,19.34224 0.0408,18.58183 0.0356,18.7262 -0.68561,19.50346 l -0.72669,0.78306 -32.61298,0.10733 c -17.93714,0.0591 -33.1177,0.01 -33.73457,-0.11008 -2.12255,-0.41144 -2.07445,0.0239 -2.34601,-21.23546 -0.25325,-19.82742 -0.35365,-21.04949 -1.50851,-18.36319 -0.24122,0.56111 -3.20793,9.0176 -6.59269,18.79223 -3.38476,9.77461 -6.39686,18.17122 -6.69355,18.65911 -0.29669,0.48789 -1.03456,1.21236 -1.63971,1.60992 -1.03077,0.67719 -1.77455,0.72109 -11.77359,0.69496 -5.87033,-0.0153 -10.90572,-0.11998 -11.18977,-0.23252 z m 74.24887,-11.34287 c 1.33172,-0.81008 14.08173,-13.60889 14.72396,-14.78031 0.3618,-0.65992 0.6269,-1.86928 0.62822,-2.86581 0.002,-0.94825 -1.58335,-9.82058 -3.52135,-19.7163 l -3.52366,-17.9922 0.23729,-4.90305 0.23731,-4.90306 -0.87221,-0.93977 -0.87221,-0.93978 h -8.63881 -8.63881 l -0.8722,0.93978 -0.87221,0.93977 0.23729,4.90306 0.2373,4.90305 -3.52004,17.9922 c -1.93602,9.89572 -3.52823,18.65996 -3.53826,19.4761 -0.0321,2.61907 0.85052,3.82509 7.8844,10.7727 7.19087,7.10269 7.745,7.56419 9.08253,7.56419 0.47341,0 1.19407,-0.20275 1.60146,-0.45057 z"
   id="path1061" /><path
   style="fill:#ffffff;stroke:#999999;stroke-width:0.230979;stroke-linejoin:round;paint-order:markers stroke fill"
   d="m 149.52684,396.83668 c -5.53085,-0.85678 -11.26096,-6.01147 -13.10972,-11.79323 -0.24236,-0.75793 -2.32498,-12.13628 -4.62807,-25.28521 -2.30309,-13.14893 -4.49623,-24.90877 -4.87366,-26.13298 -1.55116,-5.0313 -4.90619,-9.57854 -7.38938,-10.01523 -2.69009,-0.47307 -4.42971,-1.42628 -6.49645,-3.55968 -3.30885,-3.41556 -4.87866,-6.67795 -9.17648,-19.07074 -3.71148,-10.70202 -3.860501,-11.24417 -3.882566,-14.1244 -0.02075,-2.70591 0.07679,-3.16791 1.009946,-4.7833 0.71928,-1.24516 1.60789,-2.13797 2.92655,-2.94037 l 1.89366,-1.15228 h 98.2978 98.2978 l 1.89365,1.15228 c 1.31866,0.8024 2.20728,1.69521 2.92656,2.94037 0.93313,1.61539 1.03068,2.07739 1.00995,4.7833 -0.022,2.88023 -0.1711,3.42238 -3.88256,14.1244 -4.29784,12.39279 -5.86764,15.65518 -9.17649,19.07074 -2.06674,2.1334 -3.80636,3.08661 -6.49644,3.55968 -2.4832,0.43669 -5.83823,4.98393 -7.38939,10.01523 -0.37742,1.22421 -2.57057,12.98405 -4.87366,26.13298 -2.30308,13.14893 -4.38572,24.52728 -4.62807,25.28521 -1.90657,5.96254 -7.55946,10.93046 -13.45402,11.82378 -3.00984,0.45613 -105.84364,0.42726 -108.79896,-0.0305 z"
   id="path1100" /><path
   style="display:inline;fill:#ffffff;stroke:#999999;stroke-width:0.235518;stroke-linejoin:round;paint-order:markers stroke fill"
   d="m 197.45765,100.98823 c -13.59589,3.28152 -25.69744,2.92251 -30.25576,-0.89753 l -1.55773,-1.305442 -3.57836,-11.521903 c -1.96807,-6.337045 -3.50327,-11.676205 -3.41155,-11.86478 0.0917,-0.188582 7.26874,-0.396202 15.94893,-0.461367 14.17547,-0.106432 16.07271,-0.198447 18.63645,-0.903866 1.6899,-0.46498 3.53807,-1.191985 4.53041,-1.782032 0.92186,-0.548161 6.76459,-5.027805 12.98384,-9.95476 6.21924,-4.926961 11.41815,-8.920703 11.55309,-8.874984 0.135,0.04573 2.98149,4.84666 6.32558,10.668758 7.22015,12.57039 7.16595,12.386113 4.84157,16.455753 -2.43049,4.255399 -8.33791,8.966661 -16.5875,13.228792 -3.86966,1.999228 -15.0986,6.16819 -19.42897,7.213361 z"
   id="path1194" /><path
   style="display:inline;fill:#ffffff;stroke:#999999;stroke-width:0.268729;stroke-linejoin:round;paint-order:markers stroke fill"
   d="m 147.93664,120.22842 c -1.24092,-0.30268 -1.84255,-0.72524 -2.52201,-1.7714 -0.49079,-0.75564 -2.93188,-6.81159 -5.42471,-13.45765 l -4.53236,-12.083744 -1.82175,-0.774917 c -2.48436,-1.056766 -4.5277,-2.850988 -5.14647,-4.519076 -0.58463,-1.575846 -0.49347,-3.820819 0.19311,-4.757828 0.25628,-0.349758 0.23199,-1.002919 -0.0541,-1.451471 -1.00917,-1.582681 -1.94102,-5.553009 -1.84523,-7.861403 l 0.0971,-2.336417 -7.14519,0.254285 c -5.90545,0.210163 -7.44427,0.131727 -8.86881,-0.452078 -3.5139,-1.440062 -5.00409,-4.082144 -3.68073,-6.525888 0.66913,-1.235655 5.36864,-4.821409 26.97116,-20.57924 25.28504,-18.444028 26.26182,-19.114595 29.17712,-20.030837 2.88958,-0.908155 4.59071,-0.999181 40.4999,-2.167103 20.61599,-0.67052 38.07982,-1.164182 38.8085,-1.097026 4.33023,0.399061 7.58743,5.449846 5.13215,7.95833 -0.39975,0.408412 -12.32459,9.211461 -26.49971,19.562329 -24.31734,17.756878 -25.95235,18.883562 -28.95029,19.949834 l -3.1773,1.130075 -26.78846,0.872767 c -25.61335,0.834475 -26.81192,0.908377 -27.32355,1.68468 -0.80872,1.227067 -0.90652,4.030656 -0.21811,6.252466 0.56555,1.825406 0.72329,2.015247 1.96233,2.362317 4.79458,1.342943 7.49808,4.904618 6.57141,8.657313 l -0.36324,1.47093 10.05567,10.378622 c 5.53063,5.70824 10.44445,10.97657 10.91966,11.70743 0.64908,0.99891 0.70428,1.60727 0.22083,2.45019 -0.62609,1.09157 -0.82926,1.18067 -7.63019,3.34672 -6.80095,2.16606 -7.03034,2.21476 -8.61667,1.82779 z"
   id="path1155" /><path
   style="fill:#ff0000;stroke:#999999;stroke-width:0.273791;stroke-linejoin:round;paint-order:markers stroke fill"
   d="m 202.03988,248.8714 c -3.08903,-2.23451 -13.66317,-13.36889 -14.18579,-14.93736 -0.57489,-1.72536 -0.26439,-3.73804 3.96293,-25.68749 2.56782,-13.33295 2.69324,-14.2764 2.49934,-18.80038 -0.29006,-6.76704 -0.82614,-6.40961 9.61366,-6.40961 10.78084,0 10.37955,-0.26885 10.01117,6.7071 -0.24895,4.71439 -0.17392,5.31926 2.12279,17.11376 3.73246,19.16768 4.5346,23.73471 4.5346,25.81835 v 1.94134 l -7.77167,7.72758 c -4.27442,4.25017 -8.07661,7.72758 -8.4493,7.72758 -0.37271,0 -1.42468,-0.54038 -2.33773,-1.20087 z"
   id="path3619" /></svg>
