<?xml version="1.0" encoding="UTF-8" standalone="no"?>
<!-- Created with Sodipodi ("http://www.sodipodi.com/") -->
<svg xmlns:dc="http://purl.org/dc/elements/1.1/" xmlns:cc="http://web.resource.org/cc/" xmlns:rdf="http://www.w3.org/1999/02/22-rdf-syntax-ns#" xmlns:svg="http://www.w3.org/2000/svg" xmlns="http://www.w3.org/2000/svg" xmlns:sodipodi="http://sodipodi.sourceforge.net/DTD/sodipodi-0.dtd" xmlns:inkscape="http://www.inkscape.org/namespaces/inkscape" version="1.0" x="0" y="0" width="40" height="40" viewBox="0 0 129 123" id="svg602" xml:space="preserve" sodipodi:version="0.32" sodipodi:docname="emblem-pen.svg" inkscape:version="0.44.1" sodipodi:docbase="/home/rursus/Desktop/icons/Beige/scalable/emblems"><metadata id="metadata13"><rdf:RDF><cc:Work rdf:about=""><dc:format>image/svg+xml</dc:format><dc:type rdf:resource="http://purl.org/dc/dcmitype/StillImage"/></cc:Work></rdf:RDF></metadata>
  <sodipodi:namedview id="base" inkscape:zoom="11.34375" inkscape:cx="17.235223" inkscape:cy="16.135142" inkscape:window-width="980" inkscape:window-height="783" inkscape:window-x="174" inkscape:window-y="50" inkscape:current-layer="svg602"/>

  <defs id="defs871"/>

  

  

  
<g id="g2764" transform="matrix(0.925388,0,0,0.886153,-2.102517,-2.095502)"><path id="path1876" d="M 16.773554,143.91075 L 31.841322,103.2562 L 114.00331,20.241322 L 128.78678,19.38843 L 143.28595,31.897521 L 141.58017,46.680992 L 57.143801,134.24463 L 16.773554,143.91075 z " style="fill:black;fill-opacity:0.50196078;fill-rule:evenodd;stroke:none;stroke-width:1px;stroke-linecap:butt;stroke-linejoin:miter;stroke-opacity:1"/><g transform="matrix(0.890841,0,0,0.938196,13.92961,-5.860462e-2)" id="g8098"><path style="fill:#ffc148;fill-opacity:1;fill-rule:evenodd;stroke:none;stroke-width:1.61692834;stroke-linecap:butt;stroke-linejoin:miter;stroke-miterlimit:4;stroke-dasharray:none;stroke-opacity:1" d="M 4.6187448,90.036722 L -10.774006,130.71359 L 29.71042,125.01863 L 52.281446,89.744677 L 31.751653,63.858308 L 4.6187448,90.036722 z " id="path3665" sodipodi:nodetypes="cccccc"/><path style="fill:#bf0000;fill-opacity:1;fill-rule:evenodd;stroke:black;stroke-width:1.61692512;stroke-linecap:butt;stroke-linejoin:miter;stroke-miterlimit:4;stroke-dasharray:none;stroke-opacity:1" d="M 29.401725,124.48051 L 29.97032,107.12961 L 125.94281,13.512512 L 124.80299,29.726467 L 29.401725,124.48051 z " id="path1877" sodipodi:nodetypes="ccccc"/><path style="fill:#ffe0a4;fill-opacity:1;fill-rule:evenodd;stroke:none;stroke-width:1.61692512;stroke-linecap:butt;stroke-linejoin:miter;stroke-miterlimit:4;stroke-dasharray:none;stroke-opacity:1" d="M 3.4493375,90.35231 L -12.796276,132.45059 L 14.041788,109.69779 L 25.809462,98.873489 L 12.102852,82.084693 L 3.4493375,90.35231 z " id="path1883" sodipodi:nodetypes="cccccc"/><path style="fill:#ff6565;fill-opacity:1;fill-rule:evenodd;stroke:black;stroke-width:1.61692512;stroke-linecap:butt;stroke-linejoin:miter;stroke-miterlimit:4;stroke-dasharray:none;stroke-opacity:1" d="M 4.8786949,88.076929 L 16.579484,93.193785 L 111.12918,0.14478141 L 95.446899,0.71337645 L 4.8786949,88.076929 z " id="path1879" sodipodi:nodetypes="ccccc"/><path style="fill:red;fill-opacity:1;fill-rule:evenodd;stroke:black;stroke-width:1.61692512;stroke-linecap:butt;stroke-linejoin:miter;stroke-miterlimit:4;stroke-dasharray:none;stroke-opacity:1" d="M 16.580794,93.193535 L 29.971631,107.98326 L 126.79963,14.080608 L 111.41609,-0.13976549 L 16.580794,93.193535 z " id="path1881" sodipodi:nodetypes="ccccc"/><path style="fill:none;fill-opacity:0.75;fill-rule:evenodd;stroke:black;stroke-width:1.61249995;stroke-linecap:butt;stroke-linejoin:miter;stroke-miterlimit:4;stroke-dasharray:none;stroke-opacity:1" d="M 29.85124,124.29421 L -12.224793,130.83306 L 4.2644628,88.472727 L 4.2644628,88.18843 L 4.2644628,87.619835" id="path6324"/><path style="fill:black;fill-opacity:1;fill-rule:evenodd;stroke:none;stroke-width:0.99975002;stroke-linecap:butt;stroke-linejoin:miter;stroke-miterlimit:4;stroke-dasharray:none;stroke-opacity:1" d="M -12.224794,130.83306 C -12.224794,129.69587 -5.9702479,114.05951 -5.9702479,114.05951 L -1.7057851,114.05951 L 3.4115703,116.61818 L 6.2545455,122.30413 L 6.8231405,128.55868 L -12.224794,130.83306 z " id="path7211"/></g></g></svg>