<?xml version="1.0" encoding="UTF-8" standalone="no"?>
<!-- Generator: Adobe Illustrator 16.0.0, SVG Export Plug-In . SVG Version: 6.00 Build 0)  -->

<svg
   version="1.1"
   id="Layer_1"
   x="0px"
   y="0px"
   width="512px"
   height="512px"
   viewBox="0 0 512 512"
   enable-background="new 0 0 512 512"
   xml:space="preserve"
   sodipodi:docname="code2.svg"
   inkscape:version="1.1.1 (3bf5ae0d25, 2021-09-20)"
   xmlns:inkscape="http://www.inkscape.org/namespaces/inkscape"
   xmlns:sodipodi="http://sodipodi.sourceforge.net/DTD/sodipodi-0.dtd"
   xmlns="http://www.w3.org/2000/svg"
   xmlns:svg="http://www.w3.org/2000/svg"><defs
   id="defs21" /><sodipodi:namedview
   id="namedview19"
   pagecolor="#ffffff"
   bordercolor="#666666"
   borderopacity="1.0"
   inkscape:pageshadow="2"
   inkscape:pageopacity="0.0"
   inkscape:pagecheckerboard="0"
   showgrid="false"
   inkscape:zoom="1.7050781"
   inkscape:cx="255.70676"
   inkscape:cy="255.70676"
   inkscape:window-width="1881"
   inkscape:window-height="2130"
   inkscape:window-x="1955"
   inkscape:window-y="0"
   inkscape:window-maximized="0"
   inkscape:current-layer="Layer_1" />


<g
   id="g16"
   transform="matrix(1.2292221,0,0,1.3914487,-57.872009,-98.822972)">
	<g
   id="g12">
		<path
   d="m 222.012,293.484 v 25.212 L 132.4,279.849 v -21.556 l 89.612,-38.838 v 25.388 l -62.439,24.058 z"
   id="path6" />
		<path
   d="m 277.425,218.919 -24.95,102.713 c -0.83,3.38 -1.554,6.056 -2.178,8.018 -0.624,1.961 -1.569,3.495 -2.847,4.581 -1.277,1.102 -3.133,1.649 -5.572,1.649 -6.05,0 -9.083,-2.62 -9.083,-7.835 0,-1.368 0.593,-4.783 1.78,-10.245 l 24.854,-102.713 c 1.308,-5.461 2.555,-9.204 3.742,-11.22 1.187,-2.019 3.5,-3.03 6.95,-3.03 2.968,0 5.241,0.714 6.81,2.14 1.574,1.426 2.364,3.387 2.364,5.879 10e-4,1.841 -0.628,5.195 -1.87,10.063 z"
   id="path8" />
		<path
   d="m 379.599,279.849 -89.611,39.022 v -25.212 l 62.625,-24.583 -62.625,-24.234 v -25.031 l 89.611,38.658 z"
   id="path10" />
	</g>
	<path
   d="M 437.281,74.719 H 74.719 C 61.069,74.719 50,85.791 50,99.441 v 313.121 c 0,13.645 11.069,24.72 24.719,24.72 h 362.563 c 13.654,0 24.719,-11.075 24.719,-24.72 V 99.441 C 462,85.786 450.935,74.719 437.281,74.719 Z m -61.8,16.481 c 9.082,0 16.48,7.39 16.48,16.481 0,9.088 -7.398,16.479 -16.48,16.479 -9.089,0 -16.481,-7.391 -16.481,-16.479 0,-9.09 7.392,-16.481 16.481,-16.481 z m -45.319,0 c 9.083,0 16.476,7.39 16.476,16.481 0,9.088 -7.393,16.479 -16.476,16.479 -9.088,0 -16.481,-7.391 -16.481,-16.479 C 313.68,98.591 321.074,91.2 330.162,91.2 Z M 437.281,412.562 H 74.719 V 140.641 H 437.282 V 412.562 Z M 420.8,124.16 c -9.083,0 -16.48,-7.391 -16.48,-16.479 0,-9.091 7.397,-16.481 16.48,-16.481 9.083,0 16.481,7.39 16.481,16.481 0,9.088 -7.398,16.479 -16.481,16.479 z"
   id="path14" />
</g>
</svg>
