<?xml version="1.0" encoding="UTF-8" standalone="no"?>
<svg
   viewBox="0 0 640 512"
   version="1.1"
   id="svg4"
   sodipodi:docname="eskool-nsi-blanc.svg"
   inkscape:version="1.1.2 (0a00cf5339, 2022-02-04, custom)"
   xmlns:inkscape="http://www.inkscape.org/namespaces/inkscape"
   xmlns:sodipodi="http://sodipodi.sourceforge.net/DTD/sodipodi-0.dtd"
   xmlns="http://www.w3.org/2000/svg"
   xmlns:svg="http://www.w3.org/2000/svg">
  <defs
     id="defs8" />
  <sodipodi:namedview
     id="namedview6"
     pagecolor="#ffffff"
     bordercolor="#666666"
     borderopacity="1.0"
     inkscape:pageshadow="2"
     inkscape:pageopacity="0.0"
     inkscape:pagecheckerboard="0"
     showgrid="false"
     inkscape:zoom="1"
     inkscape:cx="286.5"
     inkscape:cy="256"
     inkscape:window-width="1880"
     inkscape:window-height="1050"
     inkscape:window-x="71"
     inkscape:window-y="0"
     inkscape:window-maximized="0"
     inkscape:current-layer="layer3" />
  <g
     inkscape:groupmode="layer"
     id="layer4"
     inkscape:label="chapeau"
     style="display:inline">
    <path
       style="display:inline;fill:#ffffff;stroke:#999999;stroke-width:1.18383;stroke-linejoin:round;paint-order:markers stroke fill"
       d="m 53.653332,438.33931 c -3.628806,-3.22981 -4.76564,-6.07208 -4.76564,-11.91493 0,-4.22032 5.184657,-35.84392 11.521471,-70.27471 l 11.521494,-62.6014 -4.581273,-6.27127 c -6.247619,-8.55225 -9.298474,-19.86724 -7.684151,-28.49886 1.525035,-8.15432 6.908122,-18.40925 11.40847,-21.73354 1.67983,-1.24086 3.069414,-4.29938 3.087962,-6.79671 0.06554,-8.81174 5.787412,-28.55906 11.329787,-39.10061 l 5.609716,-10.66952 -25.401528,-9.3547 C 44.705546,163.39152 39.535579,160.76041 35.903192,155.95905 26.943212,144.11553 27.727798,129.69214 37.841073,120.33351 42.954782,115.60142 67.376488,105.93399 178.0013,64.850454 307.48402,16.763532 312.39131,15.099963 324.58894,15.156714 c 12.09005,0.05616 18.20645,2.142333 145.61686,49.664691 73.14822,27.283294 134.94439,50.739015 137.32484,52.123815 14.14581,8.2292 14.06529,36.40404 -0.1268,44.39385 -2.31069,1.30085 -63.61293,24.46318 -136.22721,51.47182 -124.56965,46.33329 -132.79349,49.13748 -145.61684,49.65324 l -13.59091,0.54663 -95.05231,-35.44506 c -90.88276,-33.89024 -95.21422,-35.31483 -98.7439,-32.47635 -5.57927,4.48663 -12.24613,17.3169 -14.86826,28.61363 -2.15432,9.28118 -2.03476,10.39218 1.4874,13.82462 13.62909,13.28167 14.98518,33.74911 3.29621,49.74994 l -4.58168,6.27178 11.5185,62.85131 c 6.33519,34.56822 11.52002,66.19156 11.52188,70.27417 0.001,5.57955 -1.1801,8.47621 -4.76228,11.66451 -4.63884,4.12873 -5.54584,4.24164 -34.065586,4.24164 -28.519778,0 -29.426764,-0.11285 -34.065533,-4.24164 z"
       id="path1155" />
    <path
       style="display:inline;fill:#ffffff;stroke:#999999;stroke-width:1.37438;stroke-linejoin:round;paint-order:markers stroke fill"
       d="M 284.77036,460.62338 C 210.79093,452.3202 151.96706,425.19148 137.70141,392.7974 l -4.875,-11.0701 7.05505,-76.72224 c 3.88031,-42.19722 7.75506,-77.49595 8.61065,-78.44157 0.85559,-0.94565 36.64268,12.61274 79.52687,30.12974 70.03346,28.60674 79.57334,31.96744 93.70894,33.01179 9.3175,0.68835 19.97568,0.1265 26.1261,-1.37704 5.71355,-1.39689 44.07936,-16.30071 85.25734,-33.11958 41.17794,-16.8189 75.3327,-30.12687 75.89935,-29.57327 0.56681,0.55362 4.30195,35.31884 8.30048,77.25608 8.63306,90.54594 8.76078,89.3251 -11.40123,109.02059 -21.08227,20.59458 -60.26275,36.75877 -110.01509,45.38763 -23.33737,4.04748 -87.56166,5.9686 -111.12451,3.32395 z"
       id="path1194" />
  </g>
  <g
     inkscape:groupmode="layer"
     id="layer3"
     inkscape:label="ordi"
     style="display:inline;opacity:1">
    <path
       style="display:inline;fill:#2094f3;fill-opacity:0.00025197;stroke:#000000;stroke-width:8;stroke-linejoin:round;paint-order:markers stroke fill;stroke-opacity:1;stroke-miterlimit:4;stroke-dasharray:none"
       d="m 402.94419,192.27279 c -11.33372,-3.55094 -26.52551,-13.19378 -28.65941,-18.19129 -1.36114,-3.18775 6.85492,-32.33232 14.57455,-51.69979 1.05504,-2.6469 -6.03111,-6.8836 -28.05116,-16.77133 -16.20455,-7.276389 -31.17417,-14.815103 -33.2658,-16.752672 -4.93248,-4.569206 -2.74119,-24.407502 3.47497,-31.459304 2.50904,-2.84631 6.6731,-5.175102 9.25355,-5.175102 5.86542,0 96.16536,39.289161 102.77252,44.71595 7.39192,6.071298 6.35896,12.985798 -8.06894,54.012158 -7.32012,20.81503 -13.30928,38.325 -13.30928,38.91102 0,3.43162 -10.95822,4.84249 -18.721,2.41036 z"
       id="path1038" />
    <path
       style="display:inline;fill:#2094f3;fill-opacity:0;stroke:#000000;stroke-width:8;stroke-linejoin:round;paint-order:markers stroke fill;stroke-miterlimit:4;stroke-dasharray:none;stroke-opacity:1"
       d="m 256.41307,207.08352 c -47.79825,-20.93208 -58.91595,-27.76289 -58.91595,-36.19867 0,-5.99575 24.857,-76.953328 28.94756,-82.634646 4.03064,-5.598118 10.93328,-4.974828 26.57788,2.399906 21.05208,9.9238 21.85039,12.91081 11.65384,43.60564 l -8.68257,26.13724 21.76423,9.27417 c 43.56822,18.56534 48.48895,23.1793 42.91041,40.23541 -3.38651,10.35409 -9.64502,17.55588 -15.12519,17.40485 -1.73084,-0.0477 -23.83946,-9.14844 -49.13021,-20.2239 z"
       id="path1077" />
  </g>
</svg>
