<?xml version="1.0" encoding="UTF-8" standalone="no"?>
<!-- Svg Vector Icons : http://www.onlinewebfonts.com/icon -->

<svg
   version="1.1"
   x="0px"
   y="0px"
   viewBox="0 0 1000 1000"
   enable-background="new 0 0 1000 1000"
   xml:space="preserve"
   id="svg28"
   sodipodi:docname="orientation.svg"
   inkscape:version="1.1.1 (3bf5ae0d25, 2021-09-20, custom)"
   xmlns:inkscape="http://www.inkscape.org/namespaces/inkscape"
   xmlns:sodipodi="http://sodipodi.sourceforge.net/DTD/sodipodi-0.dtd"
   xmlns="http://www.w3.org/2000/svg"
   xmlns:svg="http://www.w3.org/2000/svg"><defs
   id="defs32" /><sodipodi:namedview
   id="namedview30"
   pagecolor="#ffffff"
   bordercolor="#666666"
   borderopacity="1.0"
   inkscape:pageshadow="2"
   inkscape:pageopacity="0.0"
   inkscape:pagecheckerboard="0"
   showgrid="false"
   inkscape:zoom="1.4263459"
   inkscape:cx="771.55199"
   inkscape:cy="603.28986"
   inkscape:window-width="3749"
   inkscape:window-height="2111"
   inkscape:window-x="91"
   inkscape:window-y="0"
   inkscape:window-maximized="1"
   inkscape:current-layer="svg28" />
<metadata
   id="metadata2"> Svg Vector Icons : http://www.onlinewebfonts.com/icon </metadata>
<g
   id="g26"
   transform="matrix(0.63996561,0,0,0.62382012,217.48492,376.78022)"><g
     transform="matrix(0.1,0,0,-0.1,0,512)"
     id="g24"><path
       d="M 4623,5014.2 C 4417.8,4993.1 4088.1,4943.3 3932.8,4908.8 2032.8,4481.3 569.9,2985.8 186.5,1076.2 115.6,725.3 98.3,535.5 100.2,98.4 c 0,-448.6 23,-674.9 107.4,-1044.9 279.9,-1248.1 1039.2,-2344.8 2105.2,-3042.7 502.3,-329.8 1123.5,-582.8 1725.5,-703.6 352.8,-70.9 540.7,-86.3 987.4,-86.3 358.5,0 488.9,9.6 699.8,42.2 830.2,136.1 1576,450.6 2239.4,947.1 228.2,170.6 650,579 837.9,811 1083.3,1334.4 1391.9,3173.1 803.3,4781.7 -97.8,266.5 -347,765 -500.4,998.9 -364.5,554 -870.6,1060.2 -1424.7,1422.5 -590.5,387.3 -1284.6,646.1 -2022.7,755.4 -184.1,26.9 -878.1,49.9 -1035.3,34.5 z M 5629.5,4556 C 7424.1,4299.1 8896.5,2974.3 9341.3,1218.1 9441,819.3 9471.7,566.2 9471.7,117.6 9471.7,-331 9441,-586 9339.4,-986.7 8934.9,-2578 7686.7,-3824.2 6099.2,-4225 c -410.3,-103.5 -640.4,-132.3 -1092.8,-132.3 -460.1,0 -713.2,30.7 -1113.9,132.3 -1234.7,316.3 -2258.5,1123.4 -2860.6,2252.7 -232,435.2 -393,926 -475.5,1461 -47.9,299.1 -47.9,933.7 0,1252 274.2,1869.3 1652.7,3353.3 3481.8,3754 191.7,42.2 325.9,63.3 632.7,97.8 143.8,17.2 749.7,-5.8 958.6,-36.5 z"
       id="path4" /><path
       d="m 2034.7,3072.1 c -5.7,-11.5 -5.7,-32.6 1.9,-44.1 46,-78.6 2241.3,-3441.5 2258.5,-3460.7 17.3,-19.2 53.7,5.8 163,117 l 141.9,143.7 -40.3,95.9 c -138,318.3 90.1,671 433.3,672.9 63.3,0 140,-15.3 197.5,-42.2 l 95.9,-40.3 143.8,141.9 c 111.2,109.3 136.1,145.7 116.9,163 -30.7,30.7 -3437.7,2248.9 -3472.2,2262.4 -15.3,5.8 -32.6,1.9 -40.2,-9.5 z"
       id="path8" /><path
       d="m 4693.9,2454.7 c -232,-28.8 -573.3,-134.2 -765,-233.9 l -49.8,-26.9 92,-63.3 92,-63.3 117,44.1 c 251.2,95.9 454.4,136.1 713.2,147.6 308.7,13.4 504.2,-13.4 774.6,-101.6 354.7,-118.9 628.9,-291.4 883.9,-557.9 393,-412.2 594.3,-916.5 592.4,-1489.7 -1.9,-264.6 -36.4,-460.1 -126.5,-722.8 l -70.9,-203.2 63.3,-93.9 65.2,-92 53.7,118.9 c 293.3,651.9 295.2,1355.5 5.7,1992 -218.6,477.4 -669.1,928 -1148.4,1146.5 -397,180.2 -872.5,255 -1292.4,199.4 z"
       id="path10" /><path
       d="m 2843.7,1070.4 c -86.3,-201.3 -159.1,-465.9 -186,-684.5 -65.2,-542.6 69,-1104.3 377.7,-1570.2 352.8,-529.2 914.5,-897.3 1558.7,-1020 161,-30.7 644.2,-30.7 805.2,0 164.9,30.7 462.1,124.6 603.9,189.8 l 113.1,53.7 -92,65.2 -93.9,63.3 -203.2,-70.9 c -262.7,-90.1 -458.2,-124.6 -722.8,-126.6 -1050.7,-1.9 -1932.6,732.4 -2126.2,1773.5 -24.9,132.3 -30.7,235.8 -23,450.6 9.6,295.3 44.1,465.9 141.9,715.1 55.6,140 51.8,155.3 -40.3,272.3 l -42.2,53.7 z"
       id="path12" /><path
       d="M 5535.6,550.9 5393.7,407.1 5434,311.2 c 84.4,-195.6 32.6,-423.7 -128.4,-561.8 -138.1,-116.9 -356.6,-143.8 -525.3,-63.3 l -74.8,34.5 -141.9,-141.9 c -111.2,-109.3 -136.1,-145.7 -117,-163 57.5,-53.7 3454.9,-2256.6 3481.8,-2258.6 17.2,0 28.8,11.5 28.8,28.8 -1.9,26.9 -2204.9,3426.2 -2258.5,3481.8 -17.4,19.3 -53.8,-5.6 -163.1,-116.8 z"
       id="path14" /><path
       d="m 4870.3,407.1 c -209,-95.9 -256.9,-350.9 -95.9,-511.9 128.5,-128.5 316.3,-128.5 444.8,0 161,161 113.1,416 -95.9,511.9 -99.6,44 -153.3,44 -253,0 z"
       id="path20" /></g></g>
<path
   style="display:inline;fill:#ffffff;stroke:#999999;stroke-width:3;stroke-linejoin:round;paint-order:markers stroke fill;stroke-miterlimit:4;stroke-dasharray:none"
   d="m 194.72723,610.44648 c -5.60196,-1.44473 -8.32485,-3.73169 -11.41448,-9.58702 -2.23165,-4.22935 -13.39016,-38.48084 -24.7967,-76.11448 l -20.73914,-68.42476 -8.23233,-4.02235 c -11.22665,-5.48533 -20.48374,-15.31794 -23.31571,-24.76521 -2.6754,-8.92483 -2.32148,-21.85996 0.75,-27.41371 1.14647,-2.07306 1.02034,-5.82432 -0.28032,-8.33614 -4.58925,-8.86293 -8.891201,-31.47806 -8.517916,-44.77907 L 98.558501,333.54122 66.35347,336.7103 C 39.736339,339.32952 32.797145,339.24582 26.360333,336.22794 10.482666,328.78371 3.6976935,313.94205 9.6015271,299.56928 12.586783,292.30182 33.681705,270.55381 130.6688,174.75374 244.18902,62.622926 248.57536,58.532485 261.69466,52.565928 274.69819,46.651902 282.36485,45.722134 444.21827,30.428332 537.14075,21.647927 615.85735,14.637636 619.14409,14.849884 638.67547,16.111197 653.48756,44.386029 642.48294,59.401253 640.6912,61.845946 587.15569,115.33004 523.51509,178.25476 414.3398,286.20204 406.99761,293.07331 393.50959,299.92259 l -14.29536,7.25926 -120.7436,11.41786 c -115.44709,10.917 -120.84849,11.62832 -123.13524,16.21589 -3.61464,7.25139 -3.98436,23.40131 -0.8246,36.01704 2.59597,10.36487 3.31175,11.4192 8.90642,13.11967 21.64856,6.57976 33.92671,26.42128 29.84431,48.22856 l -1.60016,8.54771 45.59551,57.29761 c 25.07755,31.51367 47.36343,60.64425 49.52425,64.73467 2.95148,5.59098 3.21576,9.07708 1.05765,14.04115 -2.79472,6.42831 -3.70832,6.98935 -34.31289,21.07297 -30.60459,14.08362 -31.63754,14.41841 -38.79865,12.57151 z"
   id="path1155" /><path
   style="display:inline;fill:#ffffff;stroke:#999999;stroke-width:3;stroke-linejoin:round;paint-order:markers stroke fill;stroke-miterlimit:4;stroke-dasharray:none"
   d="m 412.83712,486.84227 c -70.95601,22.51985 -135.72871,21.67608 -161.94193,-2.10946 l -8.95787,-8.12831 -24.7761,-72.95355 c -13.62682,-40.12445 -24.45151,-73.94516 -24.05477,-75.15711 0.39673,-1.21198 38.6041,-3.38979 84.90526,-4.8396 75.61366,-2.36764 85.69552,-3.17984 99.03279,-7.97807 8.79127,-3.16279 18.29845,-8.01316 23.30477,-11.88937 4.65066,-3.60102 33.63145,-32.82726 64.40175,-64.94718 30.77025,-32.11992 56.55381,-58.17482 57.2967,-57.89971 0.74304,0.27505 18.30196,30.51172 39.01999,67.19256 44.73182,79.19697 44.35169,78.02981 33.94921,104.22537 -10.87724,27.39133 -40.08931,58.10038 -82.0247,86.22822 -19.6707,13.19389 -77.55521,41.08356 -100.1551,48.25621 z"
   id="path1194" /><path
   style="fill:#ffffff;stroke:#999999;stroke-width:3;stroke-miterlimit:4;stroke-dasharray:none"
   d="m 512.31362,993.43921 c -35.03053,-2.19666 -74.494,-12.57398 -110.44937,-29.04378 -45.04429,-20.63308 -85.59029,-53.2874 -116.46278,-93.79502 -30.37386,-39.85336 -51.29689,-89.07837 -58.69679,-138.09425 -3.15595,-20.90455 -3.30984,-64.80791 -0.2973,-84.8181 1.77408,-11.78395 5.58508,-29.4015 8.74098,-40.40787 2.51351,-8.76601 3.20061,-10.40602 4.67221,-11.15184 0.94893,-0.48093 6.26827,-3.06738 11.82076,-5.74768 5.55249,-2.6803 11.35596,-5.95224 12.89661,-7.27097 3.13031,-2.67943 5.65289,-8.29978 5.64165,-12.56968 -0.009,-3.39123 -2.70901,-9.04553 -7.15551,-14.98446 -1.9893,-2.65701 -3.85362,-5.2255 -4.14293,-5.70775 -0.59605,-0.99357 5.93481,-12.74071 13.82916,-24.87468 6.21188,-9.54794 16.01211,-22.90274 16.80686,-22.90274 0.3207,0 2.948,0.32893 5.83843,0.73096 2.89044,0.40202 9.86025,0.9455 15.48846,1.20773 l 10.23311,0.47677 -5.49498,6.55625 c -31.91404,38.07768 -53.098,83.40214 -61.5791,131.75245 -2.49148,14.20385 -3.24794,24.97426 -3.25195,46.30138 -0.005,28.09576 1.54962,41.74604 7.46535,65.53735 16.19622,65.13644 55.78026,122.32762 111.97924,161.78808 36.52744,25.64796 83.67482,43.96421 128.07894,49.75729 20.16181,2.63036 58.77378,2.65815 77.98482,0.0561 32.49643,-4.40145 68.81105,-15.98632 96.96342,-30.93268 73.12015,-38.82013 124.06999,-103.70269 143.47853,-182.71409 5.50307,-22.40279 6.95664,-35.73149 6.9618,-63.83713 0.005,-27.55299 -1.48277,-41.33238 -6.85552,-63.49206 -21.09873,-87.02083 -82.50501,-158.35788 -166.83492,-193.81581 -25.81769,-10.85548 -58.41795,-19.0822 -82.33995,-20.77859 -3.22636,-0.22879 -7.91304,-0.59006 -10.41485,-0.80281 l -4.54874,-0.38683 8.41083,-8.39507 c 4.62596,-4.6173 9.81669,-10.05275 11.53496,-12.07878 l 3.12413,-3.6837 5.43613,0.80474 c 43.52781,6.44362 87.60577,22.19925 122.90468,43.93217 42.67793,26.27605 81.1006,65.08017 104.02619,105.05892 11.57126,20.17853 21.63619,41.86817 27.32963,58.89457 10.97998,32.83594 15.76443,64.94946 14.93674,100.25633 -0.45915,19.58611 -1.03388,25.92524 -3.94831,43.54892 -8.74023,52.85248 -33.23681,105.9709 -66.97061,145.2192 -13.78407,16.03736 -37.74039,38.35951 -53.78075,50.1121 -42.48503,31.12832 -96.32328,52.42123 -149.92434,59.29474 -10.05087,1.28886 -49.03085,1.90354 -63.43492,1.00031 z"
   id="path1014" /><path
   style="fill:#ffffff;stroke:#999999;stroke-width:3;stroke-miterlimit:4;stroke-dasharray:none"
   d="m 510.25286,485.29959 c 0.63443,-40.09264 0.89615,-45.12334 2.40773,-46.28209 0.93641,-0.71784 4.5657,-1.30005 8.10391,-1.30005 h 6.408 l 20.31597,30.21615 20.31596,30.21614 0.27188,-30.21614 0.27188,-30.21615 h 8.70144 8.70145 v 46.28208 46.28207 h -8.46258 -8.4626 l -19.3862,-28.63998 c -10.66239,-15.75199 -19.77581,-28.8842 -20.25202,-29.18269 -0.47623,-0.29849 -0.86587,7.60247 -0.86587,17.55771 0,9.95521 -0.30086,23.08742 -0.66861,29.18267 l -0.66859,11.08229 h -8.72179 -8.72177 z"
   id="path1092" /><path
   style="fill:#ffffff;stroke:#999999;stroke-width:3;stroke-miterlimit:4;stroke-dasharray:none"
   d="m 287.47113,738.05411 c -1.12648,-2.21362 -22.27025,-93.49252 -22.27025,-96.14199 0,-1.85706 4.75142,-2.89773 11.20296,-2.45371 l 5.08579,0.35003 4.46696,22.95198 c 2.45681,12.62359 5.30313,26.73066 6.32512,31.34904 l 1.85817,8.39706 1.95235,-5.07203 c 1.73767,-4.51432 10.86562,-39.89041 13.49682,-52.30791 1.00401,-4.73827 1.02666,-4.75839 5.36679,-4.76807 2.39719,-0.005 6.4761,-0.31255 9.06428,-0.68264 l 4.70574,-0.67292 1.77244,8.24001 c 2.25514,10.4841 9.59863,41.26023 11.54073,48.36655 0.84517,3.09254 1.83408,4.99853 2.30358,4.43996 0.45249,-0.53833 3.52779,-13.16907 6.83398,-28.06835 3.30621,-14.89926 6.71059,-28.35923 7.56524,-29.91104 1.39737,-2.53715 2.17112,-2.82143 7.67896,-2.82143 4.62075,0 6.26026,0.41927 6.67571,1.70726 0.69574,2.15692 -1.38722,12.03695 -12.43409,58.97829 -4.88398,20.75348 -8.87995,38.00945 -8.87995,38.3466 0,0.33716 -3.35395,0.61302 -7.45321,0.61302 h -7.4532 l -1.42812,-5.31815 c -0.78545,-2.92497 -4.24957,-17.15801 -7.69802,-31.62894 -6.47099,-27.15454 -7.52033,-30.68856 -8.82698,-29.72782 -0.42212,0.31038 -4.31641,15.43921 -8.65395,33.61961 l -7.88642,33.0553 h -7.24205 c -3.98313,0 -7.43435,-0.37788 -7.66938,-0.83971 z"
   id="path1131" /><path
   style="fill:#ffffff;stroke:#999999;stroke-width:3;stroke-miterlimit:4;stroke-dasharray:none"
   d="M 471.56577,691.68392 C 407.06872,596.01854 347.51737,506.22934 347.90164,505.22796 c 0.22945,-0.59794 0.81464,-1.08717 1.30042,-1.08717 1.39052,0 113.6075,70.92267 216.85679,137.05646 3.49938,2.24145 6.37205,4.48036 6.38372,4.97537 0.0229,0.97412 -12.29603,13.96156 -15.22442,16.05055 -1.765,1.25907 -1.85834,1.24823 -7.23642,-0.84008 -16.24083,-6.30633 -33.18543,-0.38874 -40.26642,14.0623 -4.22417,8.62079 -4.35785,16.2533 -0.45424,25.93476 l 2.246,5.57035 -5.23594,5.08516 c -7.82402,7.59873 -11.6534,10.87669 -12.70633,10.87669 -0.51976,0 -10.41931,-14.05279 -21.99903,-31.22843 z"
   id="path1170" /><path
   style="fill:#ffffff;stroke:#999999;stroke-width:3;stroke-miterlimit:4;stroke-dasharray:none"
   d="m 666.49413,752.85712 c -1.99275,-2.83439 -3.62318,-5.57004 -3.62318,-6.0792 0,-0.50917 1.41828,-4.92262 3.15175,-9.80767 6.62466,-18.66888 8.68814,-30.04265 8.68553,-47.87432 -0.003,-23.66923 -4.18513,-41.20153 -14.63572,-61.36268 -9.84252,-18.9881 -26.94327,-37.91768 -45.10181,-49.92523 -13.22483,-8.74507 -33.00452,-16.92383 -49.40824,-20.42994 -24.27971,-5.18953 -55.27861,-2.60978 -80.37823,6.68913 l -7.56939,2.80431 -5.34724,-3.58759 c -2.94098,-1.97317 -5.35773,-3.7781 -5.37056,-4.01094 -0.0665,-1.20579 17.826,-8.05158 29.44687,-11.26659 30.65239,-8.48025 61.15706,-7.43033 92.32013,3.17748 34.3049,11.67729 67.28729,40.63407 83.76889,73.54462 10.14995,20.26749 14.92662,40.88761 14.83083,64.02236 -0.0738,17.81893 -2.28348,31.05661 -7.94883,47.61905 -1.86224,5.44418 -6.97897,17.677 -8.62084,20.61026 -0.43966,0.78545 -1.43809,-0.1947 -4.19996,-4.12305 z"
   id="path1209" /><path
   style="fill:#ffffff;stroke:#999999;stroke-width:3;stroke-miterlimit:4;stroke-dasharray:none"
   d="m 516.23444,833.9505 c -3.02758,-0.31873 -9.39404,-1.55043 -14.14769,-2.73713 -44.67044,-11.15147 -81.36674,-40.23903 -100.44148,-79.61559 -19.03639,-39.2974 -19.57865,-80.62332 -1.60762,-122.51646 1.87882,-4.37982 3.6543,-8.20225 3.9455,-8.49428 0.2912,-0.29204 1.97768,1.41603 3.74772,3.79572 4.07965,5.48475 4.12317,7.14618 0.44304,16.91225 -6.46622,17.15958 -7.89848,26.08076 -7.89585,49.18118 0.002,16.91705 0.0775,17.91583 1.9531,25.7993 4.82992,20.30138 13.19148,38.18236 25.20995,53.91085 4.48787,5.87325 15.41439,17.02886 21.40847,21.85732 25.11264,20.22923 56.01874,30.96816 88.99841,30.92424 16.94173,-0.0226 30.73325,-2.49016 49.4536,-8.84827 l 9.66183,-3.28151 5.70215,3.76546 5.70215,3.76546 -6.04722,2.73718 c -12.36775,5.59809 -33.67606,11.69637 -45.05633,12.89479 -7.69925,0.81079 -33.1458,0.77946 -41.02973,-0.0505 z"
   id="path1248" /><path
   style="fill:#ffffff;stroke:#999999;stroke-width:3;stroke-miterlimit:4;stroke-dasharray:none"
   d="M 718.03814,869.00224 C 695.9648,855.59142 545.6223,760.57341 509.83437,737.41531 c -4.36191,-2.82255 -7.76398,-5.49021 -7.76398,-6.08795 0,-0.58517 3.74392,-4.69919 8.31981,-9.14226 l 8.31981,-8.07832 4.96522,2.08959 c 3.88514,1.63505 6.31631,2.16081 11.17639,2.41697 13.94293,0.73488 24.6621,-5.24765 30.13311,-16.81778 4.04092,-8.54574 4.04722,-16.85415 0.0201,-26.43724 l -1.8578,-4.42084 8.4164,-8.17405 c 4.62903,-4.49573 8.86858,-8.17406 9.42123,-8.17406 0.55265,0 6.11437,7.53106 12.35938,16.73568 24.59128,36.24548 120.73983,181.00032 130.89894,197.07269 3.49941,5.5363 2.13189,5.66953 -6.20481,0.6045 z"
   id="path1287" /><path
   style="fill:#ffffff;stroke:#999999;stroke-width:3;stroke-miterlimit:4;stroke-dasharray:none"
   d="m 531.66479,707.50916 c -14.79027,-5.53611 -19.0622,-21.444 -8.57488,-31.93133 6.62916,-6.62916 14.70688,-8.07193 22.85989,-4.08304 11.71952,5.73383 14.87432,20.00109 6.52108,29.49088 -5.30765,6.02981 -14.45922,8.89917 -20.80609,6.52349 z"
   id="path1326" /><path
   style="fill:#ffffff;stroke:#999999;stroke-width:3;stroke-miterlimit:4;stroke-dasharray:none"
   d="m 706.89621,676.10033 v -52.17936 h 44.24892 44.24892 v 8.20799 8.20799 h -33.02159 -33.02157 v 11.7257 11.72569 h 30.37985 30.37987 v 9.96685 9.96683 h -30.37987 -30.37985 v 12.31199 12.31199 h 34.34245 34.34244 v 9.96683 9.96683 h -45.56979 -45.56978 z"
   id="path1365" /><path
   style="fill:#ffffff;stroke:#999999;stroke-width:3;stroke-miterlimit:4;stroke-dasharray:none"
   d="m 520.02715,939.24897 c -11.93608,-1.7984 -22.99056,-7.3278 -29.87569,-14.94369 -3.50953,-3.88203 -4.66862,-6.41874 -5.23948,-11.46684 l -0.73304,-6.48207 11.72581,0.29086 11.72582,0.29085 0.83009,3.64078 c 1.66112,7.28571 8.94881,11.80774 22.30632,13.8411 15.18679,2.31183 32.20117,-3.22295 32.20117,-10.47502 0,-5.391 -5.12948,-7.5524 -30.60613,-12.89642 -17.23488,-3.61521 -29.34505,-7.27797 -34.28978,-10.37105 -5.09497,-3.18707 -7.90066,-8.70191 -7.90066,-15.52955 0,-10.78852 5.38,-17.11095 18.89911,-22.20977 6.42275,-2.42238 8.32659,-2.63792 23.09892,-2.61508 19.73254,0.0305 29.8177,1.93145 37.96484,7.15595 10.08394,6.46651 15.73663,17.95583 10.38517,21.1083 -1.12616,0.66343 -5.82564,1.44938 -10.44325,1.74659 -9.20531,0.59249 -8.92931,0.7551 -12.18717,-7.18103 -1.76703,-4.30445 -11.14267,-7.45431 -22.1664,-7.44708 -9.90658,0.006 -17.92532,1.39656 -20.4342,3.54231 -2.64121,2.25893 -2.16542,7.22556 0.89843,9.37869 1.52894,1.07449 11.41541,3.6514 22.98224,5.99035 37.33466,7.54952 47.63026,13.88734 47.55922,29.27671 -0.0442,9.59841 -8.92355,17.95317 -24.41782,22.97554 -7.02136,2.27594 -10.60145,2.75295 -22.39892,2.9844 -7.72303,0.15152 -16.67108,-0.12066 -19.8846,-0.60483 z"
   id="path1404-3" /></svg>
