<?xml version="1.0" encoding="UTF-8" standalone="no"?>
<!-- Generator: Adobe Illustrator 19.0.0, SVG Export Plug-In . SVG Version: 6.00 Build 0)  -->

<svg
   version="1.1"
   id="Layer_1"
   x="0px"
   y="0px"
   viewBox="0 0 512 512"
   style="enable-background:new 0 0 512 512;"
   xml:space="preserve"
   sodipodi:docname="pdf.svg"
   inkscape:version="1.1.2 (0a00cf5339, 2022-02-04)"
   xmlns:inkscape="http://www.inkscape.org/namespaces/inkscape"
   xmlns:sodipodi="http://sodipodi.sourceforge.net/DTD/sodipodi-0.dtd"
   xmlns="http://www.w3.org/2000/svg"
   xmlns:svg="http://www.w3.org/2000/svg"><defs
   id="defs53" /><sodipodi:namedview
   id="namedview51"
   pagecolor="#ffffff"
   bordercolor="#666666"
   borderopacity="1.0"
   inkscape:pageshadow="2"
   inkscape:pageopacity="0.0"
   inkscape:pagecheckerboard="0"
   showgrid="false"
   inkscape:zoom="1.7050781"
   inkscape:cx="256"
   inkscape:cy="255.70676"
   inkscape:window-width="1880"
   inkscape:window-height="2130"
   inkscape:window-x="71"
   inkscape:window-y="0"
   inkscape:window-maximized="0"
   inkscape:current-layer="Layer_1" />
<path
   style="fill:#d2d5d7;fill-opacity:1;stroke-width:1.02521"
   d="M 114.66995,0 C 96.171297,0 81.036026,14.4 81.036026,32 v 448 c 0,17.6 15.135271,32 33.633924,32 H 451.0093 c 18.49867,0 33.63395,-14.4 33.63395,-32 V 128 L 350.10751,0 Z"
   id="path2" />
<path
   style="fill:#a0a7ad;fill-opacity:1;stroke-width:1.02522"
   d="M 383.74146,128 H 484.64325 L 350.10751,0 V 96.000004 C 350.10751,113.6 365.24279,128 383.74146,128 Z"
   id="path4" />
<polygon
   style="fill:#4a5158;fill-opacity:1"
   points="480,224 384,128 480,128 "
   id="polygon6"
   transform="matrix(1.1113646,0,0,1,-48.811758,0)" />
<path
   style="fill:#f15642;stroke-width:1.1664"
   d="m 439.68682,412.43094 c 0,10.76298 -8.00901,19.56906 -17.7978,19.56906 H 30.337392 C 20.548601,432 12.53959,423.19392 12.53959,412.43094 v -195.6906 c 0,-10.76298 8.009011,-19.56906 17.797802,-19.56906 H 421.88902 c 9.78879,0 17.7978,8.80608 17.7978,19.56906 z"
   id="path8" />
<g
   id="g16"
   transform="matrix(1.3565769,0,0,1.7794461,-48.437485,-291.9204)">
	<path
   style="fill:#ffffff"
   d="m 101.744,303.152 c 0,-4.224 3.328,-8.832 8.688,-8.832 h 29.552 c 16.64,0 31.616,11.136 31.616,32.48 0,20.224 -14.976,31.488 -31.616,31.488 h -21.36 v 16.896 c 0,5.632 -3.584,8.816 -8.192,8.816 -4.224,0 -8.688,-3.184 -8.688,-8.816 z m 16.88,7.28 v 31.872 h 21.36 c 8.576,0 15.36,-7.568 15.36,-15.504 0,-8.944 -6.784,-16.368 -15.36,-16.368 z"
   id="path10" />
	<path
   style="fill:#ffffff"
   d="m 196.656,384 c -4.224,0 -8.832,-2.304 -8.832,-7.92 v -72.672 c 0,-4.592 4.608,-7.936 8.832,-7.936 h 29.296 c 58.464,0 57.184,88.528 1.152,88.528 z m 8.064,-72.912 V 368.4 h 21.232 c 34.544,0 36.08,-57.312 0,-57.312 z"
   id="path12" />
	<path
   style="fill:#ffffff"
   d="m 303.872,312.112 v 20.336 h 32.624 c 4.608,0 9.216,4.608 9.216,9.072 0,4.224 -4.608,7.68 -9.216,7.68 h -32.624 v 26.864 c 0,4.48 -3.184,7.92 -7.664,7.92 -5.632,0 -9.072,-3.44 -9.072,-7.92 v -72.672 c 0,-4.592 3.456,-7.936 9.072,-7.936 h 44.912 c 5.632,0 8.96,3.344 8.96,7.936 0,4.096 -3.328,8.704 -8.96,8.704 h -37.248 z"
   id="path14" />
</g>
<path
   style="fill:#4a5158;fill-opacity:1;stroke-width:1.27148"
   d="M 421.10591,431.93776 H 82 v 23.18866 h 339.10591 c 9.81622,0 17.84768,-10.4349 17.84768,-23.18866 v -23.18868 c 0,12.75378 -8.03146,23.18868 -17.84768,23.18868 z"
   id="path18" />
<g
   id="g20">
</g>
<g
   id="g22">
</g>
<g
   id="g24">
</g>
<g
   id="g26">
</g>
<g
   id="g28">
</g>
<g
   id="g30">
</g>
<g
   id="g32">
</g>
<g
   id="g34">
</g>
<g
   id="g36">
</g>
<g
   id="g38">
</g>
<g
   id="g40">
</g>
<g
   id="g42">
</g>
<g
   id="g44">
</g>
<g
   id="g46">
</g>
<g
   id="g48">
</g>
</svg>
