<?xml version="1.0" encoding="UTF-8"?>
<svg version="1.1" xmlns="http://www.w3.org/2000/svg" width="48" height="48">
<path d="M0 0 C1.10572105 -0.00642769 1.10572105 -0.00642769 2.23377991 -0.01298523 C3.78955053 -0.01871621 5.34534794 -0.01923787 6.90112305 -0.01489258 C9.27374258 -0.01173394 11.64511274 -0.03520055 14.01757812 -0.06054688 C15.53255052 -0.06282024 17.04752625 -0.06352319 18.5625 -0.0625 C19.26785385 -0.07170975 19.9732077 -0.08091949 20.69993591 -0.09040833 C25.084259 -0.04949084 27.91246087 0.52603444 31.34765625 3.30078125 C33.97885891 6.77710694 33.65383134 10.76675783 33.6484375 14.953125 C33.65272263 15.69027237 33.65700775 16.42741974 33.66142273 17.18690491 C33.66715371 18.74267553 33.66767537 20.29847294 33.66333008 21.85424805 C33.66017144 24.22686758 33.68363805 26.59823774 33.70898438 28.97070312 C33.71125774 30.48567552 33.71196069 32.00065125 33.7109375 33.515625 C33.72014725 34.22097885 33.72935699 34.9263327 33.73884583 35.65306091 C33.69792834 40.037384 33.12240306 42.86558587 30.34765625 46.30078125 C26.87133056 48.93198391 22.88167967 48.60695634 18.6953125 48.6015625 C17.58959145 48.60799019 17.58959145 48.60799019 16.46153259 48.61454773 C14.90576197 48.62027871 13.34996456 48.62080037 11.79418945 48.61645508 C9.42156992 48.61329644 7.05019976 48.63676305 4.67773438 48.66210938 C3.16276198 48.66438274 1.64778625 48.66508569 0.1328125 48.6640625 C-0.92521828 48.67787712 -0.92521828 48.67787712 -2.00462341 48.69197083 C-6.3889465 48.65105334 -9.21714837 48.07552806 -12.65234375 45.30078125 C-15.28354641 41.82445556 -14.95851884 37.83480467 -14.953125 33.6484375 C-14.95741013 32.91129013 -14.96169525 32.17414276 -14.96611023 31.41465759 C-14.97184121 29.85888697 -14.97236287 28.30308956 -14.96801758 26.74731445 C-14.96485894 24.37469492 -14.98832555 22.00332476 -15.01367188 19.63085938 C-15.01594524 18.11588698 -15.01664819 16.60091125 -15.015625 15.0859375 C-15.02483475 14.38058365 -15.03404449 13.6752298 -15.04353333 12.94850159 C-15.00261584 8.5641785 -14.42709056 5.73597663 -11.65234375 2.30078125 C-8.17601806 -0.33042141 -4.18636717 -0.00539384 0 0 Z " fill="#FBFBFB" transform="translate(14.65234375,-0.30078125)"/>
<path d="M0 0 C3.96 0 7.92 0 12 0 C11.67 0.66 11.34 1.32 11 2 C10.34 2 9.68 2 9 2 C9.25394531 2.61746094 9.50789062 3.23492188 9.76953125 3.87109375 C12.064997 9.519487 14.14793006 15.19123517 16 21 C18.0580158 19.09257072 18.97102713 18.08112403 19.9375 15.375 C20.02507583 10.64590542 18.37396581 7.04653262 16 3 C15.01 2.01 14.02 1.02 13 0 C16.3 0 19.6 0 23 0 C22.67 0.66 22.34 1.32 22 2 C21.34 2 20.68 2 20 2 C21.68807908 6.23084903 21.68807908 6.23084903 25 9 C26.04214691 4.38492226 26.04214691 4.38492226 25 0 C27.97 0 30.94 0 34 0 C33.236875 0.70125 32.47375 1.4025 31.6875 2.125 C28.87220781 5.13670792 27.21352504 7.05604362 26 11 C26.64758271 14.16020364 27.71946883 17.04492807 29 20 C32.82505612 15.60118546 35.69474034 9.86944079 36.3125 4.0625 C36.09965507 1.94249596 36.09965507 1.94249596 35 0 C37.97 0 40.94 0 44 0 C43.4121875 0.49886719 42.824375 0.99773438 42.21875 1.51171875 C39.39740535 4.67579716 38.07604685 7.91556224 36.5 11.8125 C34.31731168 17.11972159 31.94125532 22.06565719 29 27 C28.34 27 27.68 27 27 27 C25.68 24.03 24.36 21.06 23 18 C20.16032769 20.83967231 18.1653147 23.64002892 16 27 C13.50140652 24.76679887 12.2625478 22.74486661 10.9921875 19.65625 C10.47205078 18.40521484 10.47205078 18.40521484 9.94140625 17.12890625 C9.58949219 16.26136719 9.23757813 15.39382812 8.875 14.5 C8.51535156 13.63246094 8.15570313 12.76492187 7.78515625 11.87109375 C6.43505526 8.59950071 5.11954262 5.35862785 4 2 C1.98491642 1.26676204 1.98491642 1.26676204 0 1 C0 0.67 0 0.34 0 0 Z " fill="#1B1B1B" transform="translate(2,12)"/>
<path d="M0 0 C-0.32577631 7.16707877 -3.65443628 12.76927124 -7 19 C-9.58838235 17.70580883 -9.86369171 16.6545647 -10.9375 14 C-11.92212151 10.95839692 -12.16571357 9.498661 -11.1484375 6.4375 C-8.02088465 0.73108779 -6.67838659 -1.58172314 0 0 Z " fill="#F2F2F2" transform="translate(39,14)"/>
<path d="M0 0 C2.5546875 0.85546875 2.5546875 0.85546875 4.171875 2.9296875 C7.57041197 9.990623 7.57041197 9.990623 7.4921875 14.29296875 C6.5546875 16.85546875 6.5546875 16.85546875 4.5546875 19.85546875 C3.8946875 19.85546875 3.2346875 19.85546875 2.5546875 19.85546875 C1.37847925 17.44304162 0.2135919 15.02619184 -0.9453125 12.60546875 C-1.44611328 11.58259766 -1.44611328 11.58259766 -1.95703125 10.5390625 C-3.63905994 7.00336955 -4.4453125 4.83617589 -4.4453125 0.85546875 C-2.4453125 -0.14453125 -2.4453125 -0.14453125 0 0 Z " fill="#F3F3F3" transform="translate(15.4453125,13.14453125)"/>
<path d="M0 0 C3.96 0 7.92 0 12 0 C11.67 0.66 11.34 1.32 11 2 C10.34 2 9.68 2 9 2 C11.77240756 9.01167275 11.77240756 9.01167275 14.75 15.9375 C16 19 16 19 16 22 C16.66 22 17.32 22 18 22 C17.01 24.475 17.01 24.475 16 27 C13.50140652 24.76679887 12.2625478 22.74486661 10.9921875 19.65625 C10.47205078 18.40521484 10.47205078 18.40521484 9.94140625 17.12890625 C9.58949219 16.26136719 9.23757813 15.39382812 8.875 14.5 C8.51535156 13.63246094 8.15570313 12.76492187 7.78515625 11.87109375 C6.43505526 8.59950071 5.11954262 5.35862785 4 2 C1.98491642 1.26676204 1.98491642 1.26676204 0 1 C0 0.67 0 0.34 0 0 Z " fill="#181818" transform="translate(2,12)"/>
<path d="M0 0 C2.97 0 5.94 0 9 0 C8.41605469 0.49242187 7.83210938 0.98484375 7.23046875 1.4921875 C4.34117088 4.74075008 2.95060779 8.13501196 1.3125 12.125 C0.70457183 13.56516527 0.09650531 15.00527216 -0.51171875 16.4453125 C-1.00285156 17.61835938 -1.49398437 18.79140625 -2 20 C-2.33 20.66 -2.66 21.32 -3 22 C-3.99 21.67 -4.98 21.34 -6 21 C-5.4946875 20.04738281 -4.989375 19.09476563 -4.46875 18.11328125 C-3.81196785 16.84662996 -3.1557473 15.57968735 -2.5 14.3125 C-2.16613281 13.68666016 -1.83226562 13.06082031 -1.48828125 12.41601562 C0.36410839 8.80574602 1.52842509 6.07327672 1 2 C0.67 1.34 0.34 0.68 0 0 Z " fill="#3D3D3D" transform="translate(37,12)"/>
<path d="M0 0 C1.32 0.66 2.64 1.32 4 2 C3.125 6.75 3.125 6.75 2 9 C1.01 8.67 0.02 8.34 -1 8 C-2.1875 4.9375 -2.1875 4.9375 -3 2 C-2.01 1.34 -1.02 0.68 0 0 Z " fill="#DFDFDF" transform="translate(25,12)"/>
<path d="M0 0 C2.97 0 5.94 0 9 0 C8.236875 0.70125 7.47375 1.4025 6.6875 2.125 C4.03409522 4.96352604 2.55999257 7.46949051 1 11 C0.01 10.34 -0.98 9.68 -2 9 C-1.34 9 -0.68 9 0 9 C1.04214691 4.38492226 1.04214691 4.38492226 0 0 Z " fill="#313131" transform="translate(27,12)"/>
<path d="M0 0 C2.97 0 5.94 0 9 0 C7.35 1.65 5.7 3.3 4 5 C3.67 4.01 3.34 3.02 3 2 C2.01 1.67 1.02 1.34 0 1 C0 0.67 0 0.34 0 0 Z " fill="#2D2D2D" transform="translate(37,12)"/>
</svg>
