<?xml version="1.0" encoding="UTF-8" standalone="no"?>
<!-- Generator: Adobe Illustrator 19.0.0, SVG Export Plug-In . SVG Version: 6.00 Build 0)  -->

<svg
   version="1.1"
   id="Layer_1"
   x="0px"
   y="0px"
   viewBox="0 0 461.001 461.001"
   style="enable-background:new 0 0 461.001 461.001;"
   xml:space="preserve"
   sodipodi:docname="youtube.svg"
   inkscape:version="1.1.2 (0a00cf5339, 2022-02-04, custom)"
   xmlns:inkscape="http://www.inkscape.org/namespaces/inkscape"
   xmlns:sodipodi="http://sodipodi.sourceforge.net/DTD/sodipodi-0.dtd"
   xmlns="http://www.w3.org/2000/svg"
   xmlns:svg="http://www.w3.org/2000/svg"><defs
   id="defs39" /><sodipodi:namedview
   id="namedview37"
   pagecolor="#ffffff"
   bordercolor="#666666"
   borderopacity="1.0"
   inkscape:pageshadow="2"
   inkscape:pageopacity="0.0"
   inkscape:pagecheckerboard="0"
   showgrid="false"
   inkscape:zoom="1.8937052"
   inkscape:cx="230.23647"
   inkscape:cy="226.54001"
   inkscape:window-width="3769"
   inkscape:window-height="2132"
   inkscape:window-x="71"
   inkscape:window-y="0"
   inkscape:window-maximized="1"
   inkscape:current-layer="Layer_1" />
<g
   id="g4">
	<path
   style="fill:#F61C0D;"
   d="M365.257,67.393H95.744C42.866,67.393,0,110.259,0,163.137v134.728   c0,52.878,42.866,95.744,95.744,95.744h269.513c52.878,0,95.744-42.866,95.744-95.744V163.137   C461.001,110.259,418.135,67.393,365.257,67.393z M300.506,237.056l-126.06,60.123c-3.359,1.602-7.239-0.847-7.239-4.568V168.607   c0-3.774,3.982-6.22,7.348-4.514l126.06,63.881C304.363,229.873,304.298,235.248,300.506,237.056z"
   id="path2" />
</g>
<g
   id="g6">
</g>
<g
   id="g8">
</g>
<g
   id="g10">
</g>
<g
   id="g12">
</g>
<g
   id="g14">
</g>
<g
   id="g16">
</g>
<g
   id="g18">
</g>
<g
   id="g20">
</g>
<g
   id="g22">
</g>
<g
   id="g24">
</g>
<g
   id="g26">
</g>
<g
   id="g28">
</g>
<g
   id="g30">
</g>
<g
   id="g32">
</g>
<g
   id="g34">
</g>
<path
   style="fill:#ffffff;stroke:#ed1522;stroke-width:1.39709;stroke-linejoin:round;paint-order:markers stroke fill;fill-opacity:1"
   d="m 169.20832,296.08312 -1.54759,-1.33111 -0.13977,-63.28161 c -0.10369,-46.9432 0.0178,-63.66296 0.47043,-64.75868 0.73705,-1.78415 3.28484,-3.21256 4.97391,-2.78863 2.22844,0.5593 127.20648,64.09223 128.692,65.42093 1.94428,1.73902 1.94428,4.05322 0,6.10391 -1.7341,1.82901 -126.02365,61.26322 -129.01656,61.69462 -1.49566,0.21558 -2.20439,-0.003 -3.43242,-1.05943 z"
   id="path930" /><path
   style="fill:#ffffff;fill-opacity:1;stroke:#ed1522;stroke-width:1.39709;stroke-linejoin:round;paint-order:markers stroke fill"
   d="m 169.37678,295.72594 -1.45201,-1.14216 v -63.36422 c 0,-47.16102 0.15709,-63.65918 0.61432,-64.51766 0.85318,-1.60191 2.06517,-2.43704 3.56543,-2.4568 1.45983,-0.0192 87.02706,43.05096 121.37563,61.09431 9.03437,4.74576 9.64105,5.31484 8.88356,8.33292 -0.27876,1.11067 -2.47543,2.39612 -13.65493,7.99061 -21.94979,10.98422 -83.17424,40.27927 -105.43445,50.44893 -10.77412,4.92219 -11.87168,5.20761 -13.89755,3.61407 z"
   id="path1376" /></svg>
